<svg width="218" height="113" viewBox="0 0 218 113" fill="none" xmlns="http://www.w3.org/2000/svg">
<path d="M214.799 47.0396C211.32 47.3273 207.266 49.0623 194.507 53.4172C186.012 56.3166 176.472 56.63 167.344 57.3536C139.054 59.5963 132.001 58.2211 125.885 57.3536C118.929 56.367 111.362 54.3108 105.407 53.003C97.5762 51.2832 92.4778 49.0797 88.1055 47.9158C83.1937 46.6082 79.679 45.5923 76.1872 44.4283C75.311 44.1363 74.4478 43.8486 73.8593 43.2688C73.2708 42.689 72.9831 41.8259 73.1226 40.8058L90.3847 4.84119L4.3847 40.8058L72.6823 109.809C74.6905 113.423 74.134 98.7929 74.2866 88.4919C74.3927 81.3282 72.9831 72.6372 72.3946 68.4131C72.2857 67.6313 76.7457 70.8848 77.3847 71.3412C80.8847 73.8412 82.8847 74.9477 87.9442 76.8412C91.6174 78.216 94.1518 78.7054 99.6968 80.1657C104.338 81.3879 108.991 81.9138 112.923 82.6374C117.095 83.4052 121.772 84.2329 127.592 85.253C133.34 86.2606 143.813 86.2731 153.438 85.5494C169.702 84.3267 169.8 81.6261 173.885 80.1657C177.802 78.7651 187.893 73.6691 191.385 71.3412C194.826 69.0469 196.473 68.8534 199.821 65.3616C202.783 62.2718 205.191 59.542 207.959 56.7869C208.687 56.0545 209.551 55.4791 210.139 54.7511C210.728 54.0231 211.015 53.16 213.055 50.527" stroke="#FF0000" stroke-width="5" stroke-linecap="round"/>
</svg>
