<svg width="150" height="230" viewBox="0 0 150 230" fill="none" xmlns="http://www.w3.org/2000/svg">
<path d="M0 75C0 33.5786 33.5786 0 75 0C116.421 0 150 33.5786 150 75C150 90.655 145.204 105.19 137 117.215C137 117.215 120.306 134.5 115 158C109.694 181.5 43.5 182 35 158C26.5 134 13.4344 117.843 13 117.215C4.79647 105.19 0 90.655 0 75Z" fill="#E1FF00"/>
<path d="M35 186.5C35 182.358 38.3579 179 42.5 179H107.5C111.642 179 115 182.358 115 186.5C115 190.642 111.642 194 107.5 194H42.5C38.3579 194 35 190.642 35 186.5Z" fill="#A9A9A9"/>
<path d="M35 222.5C35 218.358 38.3579 215 42.5 215H107.5C111.642 215 115 218.358 115 222.5C115 226.642 111.642 230 107.5 230H42.5C38.3579 230 35 226.642 35 222.5Z" fill="#A9A9A9"/>
<path d="M35 204.5C35 200.358 38.3579 197 42.5 197H107.5C111.642 197 115 200.358 115 204.5C115 208.642 111.642 212 107.5 212H42.5C38.3579 212 35 208.642 35 204.5Z" fill="#A9A9A9"/>
<path d="M42.5 216H107.5C111.09 216 114 218.91 114 222.5C114 226.09 111.09 229 107.5 229H42.5C38.9101 229 36 226.09 36 222.5C36 218.91 38.9101 216 42.5 216ZM42.5 198H107.5C111.09 198 114 200.91 114 204.5C114 208.09 111.09 211 107.5 211H42.5C38.9101 211 36 208.09 36 204.5C36 200.91 38.9101 198 42.5 198ZM42.5 180H107.5C111.09 180 114 182.91 114 186.5C114 190.09 111.09 193 107.5 193H42.5C38.9101 193 36 190.09 36 186.5C36 182.91 38.9101 180 42.5 180ZM75 1C115.869 1 149 34.1309 149 75C149 90.4192 144.284 104.733 136.218 116.585C136.185 116.62 136.139 116.67 136.08 116.732C135.953 116.869 135.767 117.07 135.529 117.334C135.054 117.862 134.372 118.639 133.539 119.645C131.873 121.654 129.599 124.577 127.158 128.24C122.282 135.559 116.714 145.87 114.024 157.779C112.802 163.191 108.031 167.442 101.069 170.367C94.1371 173.28 85.2376 174.782 76.1943 174.812C67.1531 174.843 58.0476 173.404 50.708 170.5C43.3429 167.586 37.9277 163.272 35.9424 157.666C31.6631 145.583 26.237 135.479 21.8271 128.318C19.6216 124.737 17.6687 121.889 16.2383 119.895C15.523 118.897 14.9382 118.114 14.5186 117.56C14.3089 117.283 14.1402 117.063 14.0186 116.904C13.9574 116.825 13.9099 116.762 13.874 116.715C13.8471 116.679 13.8324 116.66 13.8262 116.651C5.73235 104.787 1 90.4477 1 75C1 34.1309 34.1309 1 75 1Z" stroke="black" stroke-width="2"/>
</svg>
