<svg width="116" height="31" viewBox="0 0 116 31" fill="none" xmlns="http://www.w3.org/2000/svg">
<path d="M9.06778 24.9351C8.53791 24.1945 7.68884 22.7071 6.49742 20.5908C4.41769 16.8965 3.32377 14.1908 3.00537 13.6872C2.61299 13.0667 2.36617 12.4879 2.10044 12.1695C1.97663 12.0211 1.94004 11.851 2.14991 11.875C3.65154 12.0463 5.22461 13.4375 7.85801 14.5555C10.5319 15.6906 13.0482 17.2679 14.669 18.3835C16.5087 19.6498 17.7341 20.5684 19.7259 21.9234C22.2241 23.6229 23.5371 25.4123 23.6704 25.5727C24.1913 26.1996 22.5827 23.7668 20.4728 20.9459C18.5394 18.3608 14.9921 13.3321 12.9102 10.5176C9.87317 6.41201 9.06938 6.10385 9.11965 5.96978C9.40822 5.20028 10.7149 6.52679 11.4027 6.79172C12.5876 7.24809 14.9044 8.16907 18.4299 10.1298C20.4539 11.2553 22.8509 12.8278 24.8626 14.194C28.4592 16.6364 30.4494 18.176 31.352 18.6277C32.7177 19.3111 33.8537 19.3491 34.6014 19.6403C35.2566 19.8955 37.2468 21.5164 38.8564 22.9369C39.6359 23.6248 40.6112 24.4531 41.5432 25.4897C42.5721 26.6339 44.2836 27.8589 44.6036 27.9938C45.8698 28.5275 43.1185 25.6293 41.2711 23.3343C39.6557 21.3274 36.7903 17.5105 35.1137 15.241C33.0044 12.3857 32.1619 10.9509 31.2849 9.70203C30.7524 8.94363 30.1925 8.23451 29.6594 7.54344C29.4811 7.31227 29.7583 7.16838 33.422 9.24717C37.0856 11.326 44.1958 15.5921 48.1746 17.9214C52.7396 20.594 53.6473 20.8381 54.0455 20.9443C54.3948 21.0374 53.5531 20.6307 50.7202 18.8591C48.8167 17.6687 46.2546 15.4548 43.8183 13.2372C41.382 11.0195 39.2226 8.7548 38.0576 7.50913C36.4759 5.81806 36.2014 5.19891 36.1463 5.11832C36.0866 5.0309 36.618 5.30106 41.706 8.64787C46.7941 11.9947 56.5903 18.5255 61.8476 21.9952C67.4953 25.7227 68.1182 25.9453 68.463 26.0778C68.6525 26.1506 68.8604 26.2629 68.6792 26.0012C68.0114 25.0362 67.0058 24.1929 66.369 23.6886C65.757 23.2039 63.8266 21.5978 60.7216 18.6269C59.1511 17.1242 57.7746 15.4452 56.9367 14.4198C56.0988 13.3944 55.8881 13.0257 54.9895 11.7561C54.091 10.4865 52.511 8.32708 51.6443 7.03033C50.2416 4.93136 50.4042 3.71463 50.5894 2.88631C50.6337 2.68813 50.7745 2.4889 50.9078 2.35404C51.1513 2.10763 51.6252 2.05958 52.1822 2.00611C53.2819 1.90056 55.2816 3.1672 59.1256 5.41916C61.3254 6.70789 63.8649 8.56648 65.3787 9.6733C66.8925 10.7801 67.2612 11.1488 69.8475 13.0768C72.4338 15.0047 77.2266 18.4808 79.7747 20.3506C82.3227 22.2203 82.4807 22.3783 82.6147 22.3807C82.7488 22.3831 82.8541 22.2251 82.8557 22.012C82.8573 21.7989 82.752 21.5356 80.907 20.6626C79.062 19.7896 75.4806 18.3149 72.8983 17.1075C70.3159 15.9001 68.8412 15.0047 67.1335 13.7271C65.4258 12.4495 63.5297 10.8168 62.0263 9.29106C60.5229 7.76528 59.4695 6.39591 65.9054 9.37725C72.3413 12.3586 86.2983 19.7321 93.5673 23.5833C100.836 27.4344 100.994 27.5397 101.155 27.6203C101.315 27.7009 101.473 27.7536 101.581 27.6754C101.689 27.5972 101.741 27.3865 101.716 27.199C101.666 26.8329 101.424 26.5327 100.317 25.7403C99.3164 25.024 97.2086 23.9998 92.4637 22.1923C87.7187 20.3849 80.3452 17.9095 76.0727 16.3973C71.8002 14.885 70.8522 14.411 69.9688 13.7718C68.1859 12.4818 67.3761 11.318 67.2692 10.9198C67.2205 10.7387 67.3729 10.5742 67.5325 10.5192C67.8826 10.3984 68.6465 10.8344 69.6289 11.2861C70.4239 11.6516 71.2544 11.8989 75.2109 13.2715C78.7265 14.4911 85.3822 16.5401 90.4599 18.3101C95.5376 20.08 98.8556 21.4494 100.697 22.1812C103.193 23.1733 103.814 23.2321 104.134 23.1539C104.273 23.1201 104.033 22.7071 101.371 20.2532C98.7088 17.7993 93.5473 13.2172 89.7034 10.0931C85.8594 6.96888 83.4893 5.44151 82.1367 4.54934C80.7841 3.65718 80.5208 3.4465 80.4378 3.41698C79.4493 3.06532 83.1701 5.03612 84.9481 5.67293C85.7174 5.99053 86.8761 6.51721 91.7127 9.36927C96.5494 12.2213 105.029 17.3828 113.925 22.7007" stroke="#FF0000" stroke-width="4" stroke-linecap="round"/>
</svg>
