<svg width="86" height="36" viewBox="0 0 86 36" fill="none" xmlns="http://www.w3.org/2000/svg">
<path d="M9.37515 28.9767C9.32248 28.924 9.26981 28.8713 8.42632 27.5802C7.58284 26.289 5.95013 23.7609 4.97737 22.1689C3.17388 19.2173 2.88581 18.1813 2.27533 16.3491C2.02406 15.5949 1.98087 15.0404 2.00641 14.6685C2.10602 13.2179 6.17516 15.8847 8.10952 17.1822C9.28036 17.9676 10.7286 19.1644 13.437 21.8681C16.1454 24.5717 20.0428 28.7851 22.1296 31.0084C24.2164 33.2316 24.3744 33.3369 24.4558 33.2332C24.7197 32.8968 24.4318 32.3299 23.2452 29.4571C22.1296 26.7562 20.1099 21.4754 18.051 16.5239C15.9922 11.5723 13.9908 7.09547 12.9334 4.65758C11.8761 2.21969 11.8234 1.95635 11.9016 2.00503C11.9798 2.0537 12.1905 2.42238 16.4598 7.29976C20.7291 12.1771 29.0507 21.5521 33.3902 26.4606C37.7297 31.3691 37.835 31.5271 37.9683 31.6611C38.1016 31.7952 38.2596 31.9005 37.9723 31.5598C37.685 31.219 36.9477 30.429 35.5671 28.521C34.1866 26.613 32.1852 23.6109 30.7328 21.2744C29.2805 18.9378 28.4378 17.3578 27.872 16.2015C26.3995 13.1921 26.4524 11.4781 26.663 10.945C26.7507 10.7233 27.2951 11.044 30.1192 13.3646C32.9433 15.6852 38.1574 20.1093 41.4229 22.7834C44.6883 25.4575 45.847 26.2475 46.2332 26.3911C46.5937 26.5252 44.7633 23.9381 42.6941 20.4652C41.5579 18.5583 40.5195 16.2023 39.8708 14.7451C38.9997 12.7887 38.3745 10.9546 37.7345 9.14474C37.5486 8.61916 37.9372 8.80958 40.549 11.3408C43.1609 13.8721 48.059 18.7176 50.9247 21.477C54.4094 24.8327 55.4437 25.5692 55.8164 25.8892C55.9098 25.9694 55.8731 25.7878 54.2659 23.0994C52.6587 20.4109 49.4986 15.1968 47.739 12.379C45.9794 9.5613 45.7161 9.29796 45.7384 9.26763C45.7608 9.23731 46.0768 9.44798 49.505 13.2959C52.9332 17.1439 59.4641 24.6228 62.8811 28.5545C66.2981 32.4863 66.4035 32.6443 66.5367 32.7783C66.67 32.9124 66.828 33.0177 65.8034 30.7546C64.7787 28.4915 62.5667 23.8567 61.2955 20.9951C59.6281 17.2416 59.3843 15.682 59.2247 14.6996C58.9978 13.3031 59.5407 12.4357 59.8607 11.7686C59.9346 11.6144 60.1248 11.5292 60.3905 11.5276C61.0334 11.5237 62.5635 12.4245 64.6614 13.7253C65.6161 14.3172 66.2854 14.868 67.9811 15.9293C69.6769 16.9907 72.363 18.5707 74.089 19.648C76.5455 21.1812 77.5739 22.1633 78.6855 23.4856C79.4284 24.4392 80.5345 25.9666 81.3676 27.2274C82.2007 28.4883 82.7274 29.4363 83.4296 30.5727" stroke="#FF0000" stroke-width="4" stroke-linecap="round"/>
</svg>
